# xmcd CD database file
#
# Track frame offsets:
#	150
#	19837
#	33600
#	54537
#	64995
#	83512
#	99095
#	120587
#	134682
#	152625
#	174162
#	189625
#	202537
#	221825
#	235162
#	247450
#
# Disc length: 3562 seconds
#
# Revision: 2
# Processed by: cddbd v1.5.1PL0 Copyright (c) Steve Scherf et al.
# Submitted via: CDex 1.51
#
DISCID=da0de810
DTITLE=Various Artist - NOW JAZZ VOCAL
DYEAR=1998
DGENRE=Jazz
TTITLE0=YOU'D BE SO NICE TO COME HOME TO - HELEN MERRILL
TTITLE1=BUT NOT FOR ME - CHET BAKER
TTITLE2=CALLING YOU - HOLLY COLE
TTITLE3=AGUA DE BEBER - ASTRUD GILBERTO
TTITLE4=IN A SENTIMENTAL MOOD - SARAH VAUGHAN
TTITLE5=UNFORGETTABLE - NAT KING COLE
TTITLE6=MACK THE KNIFE - ELLA FITZGERALD
TTITLE7=MISTY - JUNE CHRISTY
TTITLE8=THE CONTINENTAL - ELIANE ELIAS
TTITLE9=TENNESSEE WALTZ - CASSANDRA WILSON and JACKY TERRASSON
TTITLE10=SENTIMENTAL JOURNEY - DINAH SHORE
TTITLE11=AS TIME GOES BY - PEGGY LEE
TTITLE12=THE MAN I LOVE - CARMEN McRAE
TTITLE13=CRY ME A RIVER - JULIE LONDON
TTITLE14=PRELUDE TO A KISS - NANCY WILSON
TTITLE15=A WORLD AWAY - KURT ELLING
EXTD=YEAR: 1998
EXTT0=
EXTT1=
EXTT2=
EXTT3=
EXTT4=
EXTT5=
EXTT6=
EXTT7=
EXTT8=
EXTT9=
EXTT10=
EXTT11=
EXTT12=
EXTT13=
EXTT14=
EXTT15=
PLAYORDER=
